<?xml version="1.0" encoding="UTF-8" standalone="no"?>
<!-- Created with Inkscape (http://www.inkscape.org/) -->

<svg
   xmlns:dc="http://purl.org/dc/elements/1.1/"
   xmlns:cc="http://creativecommons.org/ns#"
   xmlns:rdf="http://www.w3.org/1999/02/22-rdf-syntax-ns#"
   xmlns:svg="http://www.w3.org/2000/svg"
   xmlns="http://www.w3.org/2000/svg"
   xmlns:xlink="http://www.w3.org/1999/xlink"
   xmlns:sodipodi="http://sodipodi.sourceforge.net/DTD/sodipodi-0.dtd"
   xmlns:inkscape="http://www.inkscape.org/namespaces/inkscape"
   width="2455"
   height="800"
   id="svg6633"
   version="1.1"
   inkscape:version="0.48.2 r9819"
   sodipodi:docname="footer.svg">
  <defs
     id="defs6635">
    <linearGradient
       id="linearGradient3799">
      <stop
         style="stop-color:#ddf7fc;stop-opacity:1;"
         offset="0"
         id="stop3801" />
      <stop
         style="stop-color:#ddf7fc;stop-opacity:0;"
         offset="1"
         id="stop3803" />
    </linearGradient>
    <linearGradient
       id="linearGradient3787">
      <stop
         style="stop-color:#f4cece;stop-opacity:1;"
         offset="0"
         id="stop3789" />
      <stop
         style="stop-color:#f4cece;stop-opacity:0;"
         offset="1"
         id="stop3791" />
    </linearGradient>
    <linearGradient
       id="linearGradient8429">
      <stop
         style="stop-color:#ddf7fc;stop-opacity:1;"
         offset="0"
         id="stop8431" />
      <stop
         style="stop-color:#b9eef8;stop-opacity:0;"
         offset="1"
         id="stop8433" />
    </linearGradient>
    <linearGradient
       inkscape:collect="always"
       xlink:href="#linearGradient3799"
       id="linearGradient3805"
       x1="-1050.3419"
       y1="1224.0598"
       x2="-250.30115"
       y2="1224.0598"
       gradientUnits="userSpaceOnUse" />
  </defs>
  <sodipodi:namedview
     id="base"
     pagecolor="#ffffff"
     bordercolor="#666666"
     borderopacity="1.0"
     inkscape:pageopacity="0.0"
     inkscape:pageshadow="2"
     inkscape:zoom="0.24748737"
     inkscape:cx="842.20204"
     inkscape:cy="572.78951"
     inkscape:document-units="px"
     inkscape:current-layer="layer1"
     showgrid="false"
     inkscape:window-width="1680"
     inkscape:window-height="1028"
     inkscape:window-x="-8"
     inkscape:window-y="681"
     inkscape:window-maximized="1"
     showguides="false"
     inkscape:guide-bbox="true">
    <sodipodi:guide
       orientation="0,1"
       position="697.00526,416.18285"
       id="guide8425" />
  </sodipodi:namedview>
  <metadata
     id="metadata6638">
    <rdf:RDF>
      <cc:Work
         rdf:about="">
        <dc:format>image/svg+xml</dc:format>
        <dc:type
           rdf:resource="http://purl.org/dc/dcmitype/StillImage" />
        <dc:title />
      </cc:Work>
    </rdf:RDF>
  </metadata>
  <g
     inkscape:label="Layer 1"
     inkscape:groupmode="layer"
     id="layer1"
     transform="translate(0,-252.36218)">
    <rect
       style="fill:url(#linearGradient3805);fill-opacity:1;stroke:none;opacity:0.50000000000000000"
       id="rect3017"
       width="800.04077"
       height="2450.7737"
       x="-1050.3419"
       y="-1.327051"
       transform="matrix(0,-1,1,0,0,0)" />
    <g
       transform="matrix(1.6391183,0,0,1.6391183,1277.2842,-2148.1475)"
       id="g8457"
       style="opacity:0">
      <path
         style="fill:none;stroke:#2acfee;stroke-width:2;stroke-linecap:butt;stroke-linejoin:miter;stroke-miterlimit:4;stroke-opacity:1;stroke-dasharray:none"
         d="m -785.12255,1649.5572 20,21.4286 25.71429,-18.5714 11.42857,22.8571 77.14285,-20 4.28572,25.7143 30,-28.5714 20,40 30,-40 20,25.7142 51.42857,-14.2857 2.85714,24.2857 21.42857,-21.4285 21.42858,0 4.28571,21.4285 28.57143,-21.4285 50,18.5714 57.14286,-21.4286 31.42857,21.4286 28.57143,-21.4286 38.57142,18.5715 41.42858,0 17.14285,-24.2858 14.28572,21.4286 72.857137,-12.8571 7.142857,22.8571 22.857143,-18.5714 20,-2.8572 22.8571431,18.5715 35.7142859,-17.1429 14.285714,14.2857 28.571426,-11.4285 37.142864,15.7142 11.42857,-17.1428 45.71429,18.5714 35.71428,-38.5714 22.85714,41.4286 45.71429,-27.1429 38.57143,35.7143 32.85714,-70 25.71429,60 34.28571,-20 18.57143,25.7143 28.57143,-32.8572 27.14286,14.2857 12.85714,-7.1428 21.42857,30 12.85714,-31.4286 44.28572,24.2857 22.85714,-15.7143 11.42857,17.1429 27.14286,-28.5714 20,37.1428 38.57143,-35.7143 8.57143,30"
         id="path8441"
         inkscape:connector-curvature="0" />
      <path
         inkscape:connector-curvature="0"
         id="path8443"
         d="m 722.02031,1669.5572 -20,-21.4286 -25.71429,18.5714 -11.42857,-22.8571 -77.14285,20 -4.28572,-25.7143 -30,28.5714 -20,-40 -30,40 -20,-25.7142 -51.42857,14.2857 -2.85714,-24.2857 -21.42857,21.4285 -21.42858,0 -4.28571,-21.4285 -28.57143,21.4285 -50,-18.5714 -57.14286,21.4286 -31.42857,-21.4286 -28.57143,21.4286 -38.57142,-18.5715 -41.42858,0 -17.142854,24.2858 -14.285717,-21.4286 -72.8571399,12.8571 -7.142857,-22.8571 -22.8571431,18.5714 -20,2.8572 -22.857143,-18.5715 -35.714286,17.1429 -14.28571,-14.2857 -28.57143,11.4285 -37.14286,-15.7142 -11.42857,17.1428 -45.71429,-18.5714 -35.71428,38.5714 -22.85714,-41.4286 -45.71429,27.1429 -38.57143,-35.7143 -32.85714,70 -25.71429,-60 -34.28571,20 -18.57143,-25.7143 -28.57143,32.8572 -27.14286,-14.2857 -12.85714,7.1428 -21.42857,-30 -12.85714,31.4286 -44.28572,-24.2857 -22.85714,15.7143 -11.42857,-17.1429 -27.14286,28.5714 -20,-37.1428 -38.57143,35.7143 -8.57143,-30"
         style="fill:none;stroke:#2acfee;stroke-width:2;stroke-linecap:butt;stroke-linejoin:miter;stroke-miterlimit:4;stroke-opacity:0.46875000000000000;stroke-dasharray:none" />
      <path
         style="fill:#000000;fill-opacity:0;stroke:#e88c8c;stroke-width:2;stroke-linecap:butt;stroke-linejoin:miter;stroke-miterlimit:4;stroke-opacity:1;stroke-dasharray:none"
         d="m -790.83684,1665.2715 32.85715,-14.2857 11.42857,27.1428 25.71428,-27.1428 8.57143,10 21.42857,5.7143 35.71429,-5.7143 10,11.4286 38.57143,-11.4286 7.14286,15.7143 18.57142,-10 10,10 41.42858,-12.8572 22.85714,22.8572 35.71428,-18.5715 20,17.1429 41.42858,-10 10,10 50,-21.4286 17.14285,27.1429 68.57143,-27.1429 0,15.7143 18.57143,-4.2857 7.14286,8.5714 37.14285,-11.4285 21.42858,10 40,-20 37.14286,20 19.99999,-15.7143 12.857143,12.8571 24.285714,-15.7143 45.71428609,15.7143 64.28571391,-7.1428 0,14.2857 44.285713,-15.7143 34.28572,12.8571 57.14286,-17.1428 7.14285,22.8571 67.14286,-15.7143 27.14286,8.5715 2.85714,-7.1429 35.71429,12.8571 58.57142,-17.1428 17.14286,10 25.71429,-4.2857 48.57143,21.4285 31.42857,-22.8571 38.57143,22.8571 50,-32.8571 25.71428,12.8571 21.42857,-5.7142 15.71429,31.4285 41.42857,-18.5714"
         id="path8439"
         inkscape:connector-curvature="0" />
      <path
         inkscape:connector-curvature="0"
         id="path8445"
         d="m 734.87745,1665.2715 -32.85715,14.2857 -11.42857,-27.1428 -25.71428,27.1428 -8.57143,-10 -21.42857,-5.7143 -35.71429,5.7143 -10,-11.4286 -38.57143,11.4286 -7.14286,-15.7143 -18.57142,10 -10,-10 -41.42858,12.8572 -22.85714,-22.8572 -35.71428,18.5715 -20,-17.1429 -41.42858,10 -10,-10 -50,21.4286 -17.14285,-27.1429 -68.57143,27.1429 0,-15.7143 -18.57143,4.2857 -7.14286,-8.5714 -37.14285,11.4285 -21.42858,-10 -40.000004,20 -37.142854,-20 -20,15.7143 -12.857143,-12.8571 -24.285714,15.7143 -45.714286,-15.7143 -64.285709,7.1428 0,-14.2857 -44.28571,15.7143 -34.28572,-12.8571 -57.14286,17.1428 -7.14285,-22.8571 -67.14286,15.7143 -27.14286,-8.5715 -2.85714,7.1429 -35.71429,-12.8571 -58.57142,17.1428 -17.14286,-10 -25.71429,4.2857 -48.57143,-21.4285 -31.42857,22.8571 -38.57143,-22.8571 -50,32.8571 -25.71428,-12.8571 -21.42857,5.7142 -15.71429,-31.4285 -41.42857,18.5714"
         style="fill:#000000;fill-opacity:0;stroke:#e88c8c;stroke-width:2;stroke-linecap:butt;stroke-linejoin:miter;stroke-miterlimit:4;stroke-opacity:0.61979167000000002;stroke-dasharray:none" />
      <path
         style="fill:#000000;fill-opacity:0;stroke:#e88c8c;stroke-width:2;stroke-linecap:butt;stroke-linejoin:miter;stroke-miterlimit:4;stroke-opacity:0.28645832999999998;stroke-dasharray:none"
         d="m 743.44887,1613.8429 -32.85715,-14.2857 -11.42857,27.1428 -25.71428,-27.1428 -8.57143,10 -21.42857,5.7143 -35.71429,-5.7143 -10,11.4286 -38.57143,-11.4286 -7.14286,15.7143 -18.57142,-10 -10,10 -41.42858,-12.8572 -22.85714,22.8572 -35.71428,-18.5715 -20,17.1429 -41.42858,-10 -10,10 -50,-21.4286 -17.14285,27.1429 -68.57143,-27.1429 0,15.7143 -18.57143,-4.2857 -7.14286,8.5714 -37.14285,-11.4285 -21.42858,10 -40.000004,-20 -37.142846,20 -20,-15.7143 -12.857143,12.8571 -24.2857129,-15.7143 -45.7142871,15.7143 -64.285717,-7.1428 0,14.2857 -44.28571,-15.7143 -34.28572,12.8571 -57.14286,-17.1428 -7.14285,22.8571 -67.14286,-15.7143 -27.14286,8.5715 -2.85714,-7.1429 -35.71429,12.8571 -58.57142,-17.1428 -17.14286,10 -25.71429,-4.2857 -48.57143,21.4285 -31.42857,-22.8571 -38.57143,22.8571 -50,-32.8571 -25.71428,12.8571 -21.42857,-5.7142 -15.71429,31.4285 -41.42857,-18.5714"
         id="path8447"
         inkscape:connector-curvature="0" />
      <path
         style="fill:#000000;fill-opacity:0;stroke:#e88c8c;stroke-width:2;stroke-linecap:butt;stroke-linejoin:miter;stroke-miterlimit:4;stroke-opacity:0.17187500000000000;stroke-dasharray:none;stroke-dashoffset:0"
         d="m 722.02031,1552.1286 -20,21.4286 -25.71429,-18.5714 -11.42857,22.8571 -77.14285,-20 -4.28572,25.7143 -30,-28.5714 -20,40 -30,-40 -20,25.7142 -51.42857,-14.2857 -2.85714,24.2857 -21.42857,-21.4285 -21.42858,0 -4.28571,21.4285 -28.57143,-21.4285 -50,18.5714 -57.14286,-21.4286 -31.42857,21.4286 -28.57143,-21.4286 -38.57142,18.5715 -41.42858,0 -17.142854,-24.2858 -14.285717,21.4286 -72.8571399,-12.8571 -7.142857,22.8571 -22.8571431,-18.5714 -20,-2.8572 -22.857143,18.5715 -35.714286,-17.1429 -14.28571,14.2857 -28.57143,-11.4285 -37.14286,15.7142 -11.42857,-17.1428 -45.71429,18.5714 -35.71428,-38.5714 -22.85714,41.4286 -45.71429,-27.1429 -38.57143,35.7143 -32.85714,-70 -25.71429,60 -34.28571,-20 -18.57143,25.7143 -28.57143,-32.8572 -27.14286,14.2857 -12.85714,-7.1428 -21.42857,30 -12.85714,-31.4286 -44.28572,24.2857 -22.85714,-15.7143 -11.42857,17.1429 -27.14286,-28.5714 -20,37.1428 -38.57143,-35.7143 -8.57143,30"
         id="path8449"
         inkscape:connector-curvature="0" />
    </g>
  </g>
</svg>
