<?xml version="1.0" encoding="UTF-8" standalone="no"?>
<!-- Created with Inkscape (http://www.inkscape.org/) -->

<svg
   xmlns:dc="http://purl.org/dc/elements/1.1/"
   xmlns:cc="http://creativecommons.org/ns#"
   xmlns:rdf="http://www.w3.org/1999/02/22-rdf-syntax-ns#"
   xmlns:svg="http://www.w3.org/2000/svg"
   xmlns="http://www.w3.org/2000/svg"
   xmlns:xlink="http://www.w3.org/1999/xlink"
   xmlns:sodipodi="http://sodipodi.sourceforge.net/DTD/sodipodi-0.dtd"
   xmlns:inkscape="http://www.inkscape.org/namespaces/inkscape"
   width="2455"
   height="800"
   id="svg6633"
   version="1.1"
   inkscape:version="0.48.2 r9819"
   sodipodi:docname="header.svg">
  <defs
     id="defs6635">
    <linearGradient
       id="linearGradient8429">
      <stop
         style="stop-color:#ddf7fc;stop-opacity:1;"
         offset="0"
         id="stop8431" />
      <stop
         style="stop-color:#b9eef8;stop-opacity:0;"
         offset="1"
         id="stop8433" />
    </linearGradient>
    <linearGradient
       inkscape:collect="always"
       xlink:href="#linearGradient8429"
       id="linearGradient8435"
       x1="1.8571429"
       y1="327.14285"
       x2="2463.8572"
       y2="327.14285"
       gradientUnits="userSpaceOnUse"
       gradientTransform="matrix(0.3256028,0,0,3.7644876,251.07855,-2462.73)" />
  </defs>
  <sodipodi:namedview
     id="base"
     pagecolor="#ffffff"
     bordercolor="#666666"
     borderopacity="1.0"
     inkscape:pageopacity="0.0"
     inkscape:pageshadow="2"
     inkscape:zoom="0.24748737"
     inkscape:cx="1045.0157"
     inkscape:cy="1928.4405"
     inkscape:document-units="px"
     inkscape:current-layer="layer1"
     showgrid="false"
     inkscape:window-width="1200"
     inkscape:window-height="1898"
     inkscape:window-x="1672"
     inkscape:window-y="-8"
     inkscape:window-maximized="1"
     showguides="false"
     inkscape:guide-bbox="true">
    <sodipodi:guide
       orientation="0,1"
       position="697.00526,416.18285"
       id="guide8425" />
  </sodipodi:namedview>
  <metadata
     id="metadata6638">
    <rdf:RDF>
      <cc:Work
         rdf:about="">
        <dc:format>image/svg+xml</dc:format>
        <dc:type
           rdf:resource="http://purl.org/dc/dcmitype/StillImage" />
        <dc:title></dc:title>
      </cc:Work>
    </rdf:RDF>
  </metadata>
  <g
     inkscape:label="Layer 1"
     inkscape:groupmode="layer"
     id="layer1"
     transform="translate(0,-252.36218)">
    <rect
       style="fill:url(#linearGradient8435);fill-opacity:1;stroke:none"
       id="rect8427"
       width="800.98291"
       height="2463.0503"
       x="252.00887"
       y="-2462.7297"
       transform="matrix(0,1,-1,0,0,0)" />
    <path
       style="fill:#000000;fill-opacity:0;stroke:#e88c8c;stroke-width:2;stroke-linecap:butt;stroke-linejoin:miter;stroke-miterlimit:4;stroke-opacity:1;stroke-dasharray:none"
       d="m 2481.3565,825.01625 -54.0001,23.47828 -18.7826,-44.60869 -42.261,44.60869 -14.087,-16.43482 -35.2174,-9.39134 -58.6958,9.39134 -16.4348,-18.78269 -63.3915,18.78269 -11.7391,-25.82616 -30.5218,16.43482 -16.4348,-16.43482 -68.0871,21.13057 -37.5653,-37.56538 -58.6958,30.52191 -32.8696,-28.17404 -68.0871,16.43482 -16.4348,-16.43482 -82.1741,35.21751 -28.174,-44.60885 -112.6959,44.60885 0,-25.82616 -30.5218,7.04347 -11.7391,-14.08694 -61.0436,18.78253 -35.2175,-16.43482 -65.7393,32.86964 -61.0435,-32.86964 -32.8697,25.82617 -21.1305,-21.13041 -39.9131,25.82616 -75.1306,-25.82616 -105.6524,11.73906 0,-23.47828 -72.7827,25.82616 -56.34796,-21.13041 -93.91323,28.17388 -11.73915,-37.56523 -110.34805,25.82617 -44.60879,-14.08711 -4.69566,11.73923 -58.69578,-21.13041 -96.26105,28.17388 -28.17398,-16.43482 -42.26096,7.04347 -79.82625,-35.21734 -51.65228,37.56522 -63.39143,-37.56522 -82.17408,54.00004 -42.26095,-21.13041 -35.21746,9.39118 -25.826144,-51.65216 -68.0870925,30.52175"
       id="path7837"
       inkscape:connector-curvature="0" />
    <path
       style="fill:none;stroke:#2acfee;stroke-width:2;stroke-linecap:butt;stroke-linejoin:miter;stroke-miterlimit:4;stroke-opacity:1;stroke-dasharray:none"
       d="m 2471.9652,850.84241 -32.8696,-35.21751 -42.261,30.52175 -18.7826,-37.56522 -126.7829,32.86963 -7.0435,-42.26098 -49.3044,46.95657 -32.8697,-65.73926 -49.3044,65.73926 -32.8697,-42.26081 -84.5219,23.47828 -4.6956,-39.9131 -35.2175,35.21735 -35.2175,0 -7.0434,-35.21735 -46.9567,35.21735 -82.174,-30.52176 -93.9133,35.21751 -51.6523,-35.21751 -46.9566,35.21751 -63.3914,-30.52192 -68.0871,0 -28.174,39.91327 -23.4783,-35.21751 -119.7394,21.13041 -11.7391,-37.56523 -37.5653,30.52176 -32.8696,4.69575 -37.5653,-30.52191 -58.6958,28.17404 -23.4783,-23.47829 -46.9566,18.78253 -61.04362,-25.826 -18.78265,28.17388 -75.13059,-30.52176 -58.69577,63.39139 -37.56528,-68.08714 -75.1306,44.60886 -63.39143,-58.6958 -54.00011,115.04371 -42.26096,-98.60889 -56.34794,32.86963 -30.5218,-42.26098 -46.95662,54.0002 -44.60879,-23.47828 -21.13047,11.73906 -35.21746,-49.30445 -21.13048,51.65233 -72.78276,-39.9131 -37.56529,25.82616 -18.78265,-28.17404 -44.60879,46.95657 -32.869628,-61.04351 -63.391435,58.69579 -14.086988,-49.30444"
       id="path7841"
       inkscape:connector-curvature="0" />
    <path
       inkscape:connector-curvature="0"
       id="path7851"
       d="m -4.9963555,817.97278 32.8696325,35.21751 42.260962,-30.52176 18.782644,37.56523 126.782857,-32.86964 7.0435,42.26098 49.30445,-46.95657 32.86963,65.73927 49.30445,-65.73927 32.86963,42.26082 84.52191,-23.47829 4.69566,39.9131 35.21746,-35.21734 35.21747,0 7.04349,35.21734 46.95662,-35.21734 82.17408,30.52175 93.91324,-35.21751 51.65227,35.21751 46.95662,-35.21751 63.39142,30.52192 68.08716,0 28.1739,-39.91327 23.4783,35.21751 119.7394,-21.1304 11.7391,37.56522 37.5653,-30.52175 32.8697,-4.69576 37.5653,30.52192 58.6957,-28.17404 23.4783,23.47828 46.9567,-18.78253 61.0436,25.826 18.7826,-28.17387 75.1306,30.52175 58.6958,-63.39139 37.5653,68.08715 75.1306,-44.60886 63.3914,58.69579 54.0001,-115.04371 42.261,98.6089 56.3479,-32.86963 30.5218,42.26098 46.9566,-54.00021 44.6088,23.47829 21.1305,-11.73906 35.2174,49.30444 21.1305,-51.65232 72.7828,39.9131 37.5653,-25.82616 18.7826,28.17404 44.6088,-46.95657 32.8696,61.04351 63.3915,-58.6958 14.087,49.30445"
       style="fill:none;stroke:#2acfee;stroke-width:2;stroke-linecap:butt;stroke-linejoin:miter;stroke-miterlimit:4;stroke-opacity:0.46875000000000000;stroke-dasharray:none" />
    <path
       inkscape:connector-curvature="0"
       id="path7853"
       d="m -26.126829,825.01625 54.000122,-23.47829 18.782644,44.60869 42.260946,-44.60869 14.086987,16.43482 35.21746,9.39134 58.69578,-9.39134 16.43482,18.78269 63.39143,-18.78269 11.73916,25.82616 30.52179,-16.43482 16.43481,16.43482 68.08711,-21.13057 37.56529,37.56539 58.69576,-30.52192 32.86964,28.17404 68.0871,-16.43482 16.43482,16.43482 82.17408,-35.21751 28.17396,44.60885 112.69588,-44.60885 0,25.82616 30.52181,-7.04347 11.73915,14.08694 61.0436,-18.78253 35.21747,16.43482 65.73931,-32.86964 61.0436,32.86964 32.8696,-25.82617 21.1305,21.13041 39.9131,-25.82616 75.1306,25.82616 105.6524,-11.73906 0,23.47829 72.7827,-25.82617 56.348,21.13041 93.9132,-28.17388 11.7391,37.56523 110.3481,-25.82617 44.6088,14.08711 4.6956,-11.73923 58.6958,21.13041 96.2611,-28.17388 28.174,16.43482 42.2609,-7.04347 79.8263,35.21734 51.6522,-37.56522 63.3915,37.56522 82.1741,-54.00003 42.2609,21.1304 35.2175,-9.39118 25.8261,51.65216 68.0871,-30.52175"
       style="fill:#000000;fill-opacity:0;stroke:#e88c8c;stroke-width:2;stroke-linecap:butt;stroke-linejoin:miter;stroke-miterlimit:4;stroke-opacity:0.61979167000000002;stroke-dasharray:none" />
    <path
       style="fill:#000000;fill-opacity:0;stroke:#e88c8c;stroke-width:2;stroke-linecap:butt;stroke-linejoin:miter;stroke-miterlimit:4;stroke-opacity:0.28645832999999998;stroke-dasharray:none"
       d="m -40.2138,909.5382 54.000122,23.47829 18.782644,-44.60869 42.260946,44.60869 14.086988,-16.43482 35.21746,-9.39134 58.69578,9.39134 16.43481,-18.78269 63.39144,18.78269 11.73916,-25.82616 30.52179,16.43482 16.43481,-16.43482 68.08711,21.13057 37.56529,-37.56539 58.69576,30.52192 32.86963,-28.17404 68.08711,16.43482 16.43482,-16.43482 82.17408,35.21751 28.17396,-44.60886 112.69588,44.60886 0,-25.82616 30.5218,7.04347 11.73916,-14.08694 61.04359,18.78253 35.21748,-16.43482 65.73928,32.86963 61.0436,-32.86963 32.8696,25.82617 21.1305,-21.13041 39.9131,25.82616 75.1306,-25.82616 105.6524,11.73906 0,-23.47829 72.7827,25.82617 56.348,-21.13041 93.9132,28.17388 11.7392,-37.56523 110.348,25.82617 44.6088,-14.08711 4.6957,11.73923 58.6958,-21.13041 96.261,28.17388 28.174,-16.43482 42.2609,7.04347 79.8263,-35.21735 51.6523,37.56523 63.3914,-37.56523 82.1741,54.00004 42.2609,-21.1304 35.2175,9.39118 25.8261,-51.65216 68.0871,30.52175"
       id="path7855"
       inkscape:connector-curvature="0" />
    <path
       style="fill:none;stroke:#2acfee;stroke-width:2;stroke-linecap:butt;stroke-linejoin:miter;stroke-miterlimit:4;stroke-opacity:0.23437500000000000;stroke-dasharray:none;stroke-dashoffset:0"
       d="m -4.9963555,1010.9645 32.8696325,-35.21749 42.260962,30.52179 18.782644,-37.56526 126.782857,32.86966 7.0435,-42.26101 49.30445,46.95661 32.86963,-65.7393 49.30445,65.7393 32.86963,-42.26085 84.52191,23.47828 4.69566,-39.9131 35.21746,35.21735 35.21747,0 7.04349,-35.21735 46.95662,35.21735 82.17408,-30.52176 93.91324,35.21751 51.65227,-35.21751 46.95662,35.21751 63.39142,-30.52191 68.08716,0 28.1739,39.91326 23.4783,-35.21751 119.7394,21.13041 11.7391,-37.56522 37.5653,30.52175 32.8697,4.69576 37.5653,-30.52192 58.6957,28.17404 23.4783,-23.47829 46.9567,18.78253 61.0436,-25.826 18.7826,28.17388 75.1306,-30.52175 58.6958,63.39134 37.5653,-68.0871 75.1306,44.60886 63.3914,-58.6958 54.0001,115.04374 42.261,-98.60892 56.3479,32.86963 30.5218,-42.26098 46.9566,54.0002 44.6088,-23.47828 21.1305,11.73906 35.2174,-49.30445 21.1305,51.65233 72.7828,-39.9131 37.5653,25.82616 18.7826,-28.17404 44.6088,46.95657 32.8696,-61.04351 63.3915,58.6958 14.087,-49.30445"
       id="path7857"
       inkscape:connector-curvature="0" />
    <text
       xml:space="preserve"
       style="font-size:65.93421936000000000px;font-style:normal;font-weight:normal;line-height:125%;letter-spacing:0px;word-spacing:0px;fill:#489aaa;fill-opacity:0;stroke:none;font-family:Sans"
       x="407.47757"
       y="636.17932"
       id="text8417"
       sodipodi:linespacing="125%"><tspan
         sodipodi:role="line"
         id="tspan8419"
         x="407.47757"
         y="636.17932"
         style="font-size:164.83554076999999000px;font-style:normal;font-variant:normal;font-weight:normal;font-stretch:normal;text-align:start;line-height:125%;writing-mode:lr-tb;text-anchor:start;fill:#489aaa;fill-opacity:0;font-family:Serif;-inkscape-font-specification:Serif">HUI</tspan></text>
    <text
       xml:space="preserve"
       style="font-size:42.07762526999999900px;font-style:normal;font-weight:normal;line-height:125%;letter-spacing:0px;word-spacing:0px;fill:#489aaa;fill-opacity:0;stroke:none;font-family:Sans"
       x="807.32983"
       y="636.17932"
       id="text8421"
       sodipodi:linespacing="125%"><tspan
         sodipodi:role="line"
         id="tspan8423"
         x="807.32983"
         y="636.17932">UI components from higis</tspan></text>
  </g>
</svg>
